name GIL01_fast5.mot
datacolumns 153
datarows 4
range 0.10833336 0.13333336
endheader

                time	           pelvis_tx	           pelvis_ty	           pelvis_tz	         pelvis_tilt	         pelvis_list	     pelvis_rotation	       hip_flexion_r	     hip_adduction_r	      hip_rotation_r	        knee_angle_r	       ankle_angle_r	    subtalar_angle_r	         mtp_angle_r	       hip_flexion_l	     hip_adduction_l	      hip_rotation_l	        knee_angle_l	       ankle_angle_l	    subtalar_angle_l	         mtp_angle_l	    lumbar_extension	      lumbar_bending	     lumbar_rotation	     ground_force_vx	     ground_force_vy	     ground_force_vz	     ground_force_px	     ground_force_py	     ground_force_pz	     ground_force_vx	     ground_force_vy	     ground_force_vz	     ground_force_px	     ground_force_py	     ground_force_pz	     ground_torque_x	     ground_torque_y	     ground_torque_z	     ground_torque_x	     ground_torque_y	     ground_torque_z	    ground_marker_px	    ground_marker_py	    ground_marker_pz	    ground_marker_px	    ground_marker_py	    ground_marker_pz	    ground_marker_px	    ground_marker_py	    ground_marker_pz	    ground_marker_px	    ground_marker_py	    ground_marker_pz	    ground_marker_px	    ground_marker_py	    ground_marker_pz	    ground_marker_px	    ground_marker_py	    ground_marker_pz	    ground_marker_px	    ground_marker_py	    ground_marker_pz	    ground_marker_px	    ground_marker_py	    ground_marker_pz	    ground_marker_px	    ground_marker_py	    ground_marker_pz	    ground_marker_px	    ground_marker_py	    ground_marker_pz	    ground_marker_px	    ground_marker_py	    ground_marker_pz	    ground_marker_px	    ground_marker_py	    ground_marker_pz	    ground_marker_px	    ground_marker_py	    ground_marker_pz	    ground_marker_px	    ground_marker_py	    ground_marker_pz	    ground_marker_px	    ground_marker_py	    ground_marker_pz	    ground_marker_px	    ground_marker_py	    ground_marker_pz	    ground_marker_px	    ground_marker_py	    ground_marker_pz	    ground_marker_px	    ground_marker_py	    ground_marker_pz	    ground_marker_px	    ground_marker_py	    ground_marker_pz	    ground_marker_px	    ground_marker_py	    ground_marker_pz	    ground_marker_px	    ground_marker_py	    ground_marker_pz	    ground_marker_px	    ground_marker_py	    ground_marker_pz	    ground_marker_px	    ground_marker_py	    ground_marker_pz	    ground_marker_px	    ground_marker_py	    ground_marker_pz	    ground_marker_px	    ground_marker_py	    ground_marker_pz	    ground_marker_px	    ground_marker_py	    ground_marker_pz	    ground_marker_px	    ground_marker_py	    ground_marker_pz	    ground_marker_px	    ground_marker_py	    ground_marker_pz	    ground_marker_px	    ground_marker_py	    ground_marker_pz	    ground_marker_px	    ground_marker_py	    ground_marker_pz	    ground_marker_px	    ground_marker_py	    ground_marker_pz	    ground_marker_px	    ground_marker_py	    ground_marker_pz	    ground_marker_px	    ground_marker_py	    ground_marker_pz	    ground_marker_px	    ground_marker_py	    ground_marker_pz	    ground_marker_px	    ground_marker_py	    ground_marker_pz	    ground_marker_px	    ground_marker_py	    ground_marker_pz	    ground_marker_px	    ground_marker_py	    ground_marker_pz	
          0.10833336	          0.55789191	          0.77402675	         -0.23705906	         -3.79453945	         -5.92310095	          3.82085872	         29.92797089	          9.08918285	          3.56003022	        -21.67374229	         -3.51438355	          0.00000000	          0.00000000	        -11.32268333	         -8.96889305	         -8.15319443	        -32.01513290	        -32.26649094	          0.00000000	          0.00000000	          0.78365624	          6.96899462	         -8.89199352	       -100.43611191	        507.48490654	         -5.24107467	          0.65205225	          0.00000000	         -0.21319620	          0.00000000	          0.00000000	          0.00000000	          1.10133521	          0.00000000	         -0.27090283	          0.00000000	         -1.76647412	          0.00000000	          0.00000000	          0.00000000	          0.00000000	          0.49952859	          0.71186781	         -0.22684097	          0.49172422	          0.71343583	         -0.16032068	          0.47971603	          0.70288825	         -0.28965235	          0.63695103	          0.40152317	         -0.20356353	          0.39193958	          0.39107585	         -0.30703047	          0.65763587	          0.06639867	         -0.22316378	          0.12499617	          0.15173352	         -0.31639156	          0.55789191	          0.77402675	         -0.23705906	          0.56698376	          0.78201276	         -0.13913693	          0.54880005	          0.76604074	         -0.33498120	          0.40354121	          0.82229751	         -0.19351336	          0.39786407	          0.81815338	         -0.24842525	          0.64880407	          0.39960083	         -0.14989033	          0.38178012	          0.39690223	         -0.36025724	          0.63042992	          0.40236801	         -0.24557953	          0.40064728	          0.36353278	         -0.25437954	          0.65785968	          0.06422297	         -0.18572763	          0.11810865	          0.16079231	         -0.35159811	          0.66370565	          0.06722110	         -0.24817149	          0.12476868	          0.15265130	         -0.28628612	          0.40609518	          1.17910099	         -0.24675171	          0.51799291	          1.13282764	         -0.19431497	          0.52325702	          1.13526523	         -0.27064314	          0.50629324	          1.13115168	         -0.23495895	          0.54376972	          1.05274010	         -0.23246653	          0.70482063	          0.54857183	         -0.10075921	          0.56875265	          0.47642973	         -0.33858368	          0.60654908	          0.56805497	         -0.11121997	          0.50909936	          0.55051064	         -0.35539094	          0.63806897	          0.49230573	         -0.13508816	          0.47793150	          0.46875629	         -0.35115141	          0.65431070	          0.16719057	         -0.10340287	          0.21637441	          0.23931010	         -0.42601249	          0.64817393	          0.13766845	         -0.18078297	          0.17966700	          0.21766774	         -0.35231283	          0.75729549	          0.03708584	         -0.20191327	          0.11559628	          0.04736117	         -0.30812165	
          0.11666669	          0.56933630	          0.77508110	         -0.23613495	         -3.83801460	         -6.20372677	          3.88613868	         29.26168060	          9.56936359	          2.82611871	        -21.95363045	         -2.57554793	          0.00000000	          0.00000000	         -9.10671711	         -9.34581947	         -7.53060436	        -35.31158447	        -35.90069962	          0.00000000	          0.00000000	          0.81187224	          7.18568087	         -9.19406223	        -95.89631717	        514.17788962	         -4.87607025	          0.65304175	          0.00000000	         -0.21317700	          0.00000000	          0.00000000	          0.00000000	          1.10223877	          0.00000000	         -0.27032166	          0.00000000	         -1.80088818	          0.00000000	          0.00000000	          0.00000000	          0.00000000	          0.51145607	          0.71319294	         -0.22508177	          0.50330210	          0.71488714	         -0.15897031	          0.49097085	          0.70378095	         -0.28822479	          0.64381409	          0.40179965	         -0.20347281	          0.41459239	          0.38848487	         -0.30705073	          0.65837979	          0.06626498	         -0.22324927	          0.14401078	          0.15596487	         -0.31711096	          0.56933630	          0.77508110	         -0.23613495	          0.57868540	          0.78350151	         -0.13813819	          0.55998713	          0.76666069	         -0.33413172	          0.41530940	          0.82374460	         -0.19259442	          0.40954939	          0.81907523	         -0.24752820	          0.65528369	          0.39930949	         -0.14973970	          0.40457055	          0.39409363	         -0.36032695	          0.63795048	          0.40225211	         -0.24546841	          0.42455935	          0.35948727	         -0.25445560	          0.65808302	          0.06404579	         -0.18581617	          0.13732485	          0.16526739	         -0.35229278	          0.66394252	          0.06699706	         -0.24828696	          0.14279024	          0.15721938	         -0.28680328	          0.41827717	          1.18068719	         -0.24594985	          0.53023171	          1.13427067	         -0.19367696	          0.53572279	          1.13663363	         -0.26993957	          0.51864982	          1.13257039	         -0.23432845	          0.55603498	          1.05412126	         -0.23165503	          0.71342051	          0.54648989	         -0.09926027	          0.58862865	          0.47888029	         -0.33744156	          0.61548430	          0.56750095	         -0.11048018	          0.52631879	          0.55079639	         -0.35453930	          0.64597231	          0.49159119	         -0.13441584	          0.49826461	          0.46768913	         -0.35059398	          0.65543211	          0.16707511	         -0.10352996	          0.23670094	          0.24145585	         -0.42645597	          0.64951098	          0.13772056	         -0.18093722	          0.20004979	          0.22008780	         -0.35279432	          0.75751752	          0.03684288	         -0.20213428	          0.12600563	          0.05177940	         -0.30884635	
          0.12500003	          0.58035135	          0.77621961	         -0.23549654	         -3.92750072	         -6.44060040	          3.95334959	         28.56613541	          9.92022419	          2.20374346	        -22.03306007	         -1.74900877	          0.00000000	          0.00000000	         -6.71785164	         -9.56723404	         -6.97958851	        -38.65975571	        -38.25024414	          0.00000000	          0.00000000	          0.87358952	          7.36531067	         -9.27601719	        -89.48713427	        519.27206468	         -3.87771812	          0.65392145	          0.00000000	         -0.21316299	          0.00000000	          0.00000000	          0.00000000	          1.10333289	          0.00000000	         -0.26960873	          0.00000000	         -1.80479419	          0.00000000	          0.00000000	          0.00000000	          0.00000000	          0.52299088	          0.71455622	         -0.22321385	          0.51438993	          0.71642011	         -0.15796380	          0.50174844	          0.70486236	         -0.28714871	          0.64992601	          0.40196401	         -0.20311621	          0.43767598	          0.38658062	         -0.30693775	          0.65907836	          0.06616136	         -0.22322100	          0.16384552	          0.16061796	         -0.31770551	          0.58035135	          0.77621961	         -0.23549654	          0.58995074	          0.78499603	         -0.13739887	          0.57075191	          0.76744312	         -0.33359420	          0.42686734	          0.82539165	         -0.19163725	          0.42100447	          0.82017767	         -0.24651186	          0.66102320	          0.39902365	         -0.14932767	          0.42767185	          0.39190897	         -0.36024606	          0.64665830	          0.40302157	         -0.24553953	          0.44853446	          0.35659373	         -0.25360134	          0.65816748	          0.06389613	         -0.18580057	          0.15747984	          0.17001034	         -0.35292286	          0.66410816	          0.06684830	         -0.24830881	          0.16172849	          0.16255112	         -0.28714702	          0.43043122	          1.18245161	         -0.24515815	          0.54269469	          1.13581824	         -0.19317712	          0.54812551	          1.13813424	         -0.26937130	          0.53107744	          1.13411009	         -0.23378208	          0.56837291	          1.05561852	         -0.23109749	          0.72148919	          0.54463029	         -0.09770591	          0.60840702	          0.48190928	         -0.33664170	          0.62348056	          0.56736523	         -0.10934304	          0.54336828	          0.55158395	         -0.35380059	          0.65398657	          0.49123678	         -0.13369864	          0.51822227	          0.46715352	         -0.34979352	          0.65600407	          0.16690932	         -0.10347024	          0.25814211	          0.24368304	         -0.42674407	          0.65034693	          0.13753164	         -0.18109612	          0.22142074	          0.22273913	         -0.35317224	          0.75763655	          0.03665897	         -0.20219131	          0.13934657	          0.05676024	         -0.30991676	
          0.13333336	          0.59117723	          0.77753359	         -0.23507822	         -4.00389862	         -6.67929649	          4.08665657	         27.73855209	         10.17853451	          1.69285274	        -21.87382889	         -1.00333285	          0.00000000	          0.00000000	         -4.25799990	         -9.71601295	         -6.43568230	        -41.99237061	        -39.14058304	          0.00000000	          0.00000000	          0.78531402	          7.54644108	         -9.15428638	        -82.07519515	        519.97485627	         -3.44252380	          0.65467657	          0.00000000	         -0.21303287	          0.00000000	          0.00000000	          0.00000000	          1.10466602	          0.00000000	         -0.26877866	          0.00000000	         -1.72261255	          0.00000000	          0.00000000	          0.00000000	          0.00000000	          0.53414595	          0.71621442	         -0.22109482	          0.52538234	          0.71810144	         -0.15712270	          0.51228702	          0.70612913	         -0.28622460	          0.65529424	          0.40202320	         -0.20248079	          0.46106580	          0.38541144	         -0.30672437	          0.65963852	          0.06607223	         -0.22308837	          0.18436258	          0.16557178	         -0.31815109	          0.59117723	          0.77753359	         -0.23507822	          0.60114121	          0.78664315	         -0.13684636	          0.58121318	          0.76842403	         -0.33331007	          0.43791154	          0.82729071	         -0.19075176	          0.43207845	          0.82149667	         -0.24551973	          0.66610628	          0.39874274	         -0.14865385	          0.45098874	          0.39042926	         -0.36004907	          0.65490997	          0.40391663	         -0.24532181	          0.47243735	          0.35382855	         -0.25579745	          0.65814346	          0.06375882	         -0.18568967	          0.17842306	          0.17488310	         -0.35346431	          0.66428375	          0.06675493	         -0.24821766	          0.18158720	          0.16792458	         -0.28740358	          0.44242746	          1.18437457	         -0.24440145	          0.55476642	          1.13738632	         -0.19285192	          0.55980885	          1.13966465	         -0.26904508	          0.54293275	          1.13570654	         -0.23338145	          0.57997984	          1.05709183	         -0.23086910	          0.72913116	          0.54309982	         -0.09623694	          0.62800735	          0.48548129	         -0.33606622	          0.63168573	          0.56763822	         -0.10814217	          0.56057578	          0.55296177	         -0.35343492	          0.66195166	          0.49113989	         -0.13285263	          0.53883612	          0.46802071	         -0.35036626	          0.65633601	          0.16666789	         -0.10322786	          0.28058192	          0.24591897	         -0.42687103	          0.65096283	          0.13723153	         -0.18113750	          0.24347156	          0.22576317	         -0.35343799	          0.75767636	          0.03651866	         -0.20212826	          0.15593180	          0.06200848	         -0.31135473	
